<svg xmlns="http://www.w3.org/2000/svg" viewBox="0 0 180 180" fill="none" shape-rendering="auto"
    width="35" height="35">
    <desc>"Bottts" by "Pablo Stanley", licensed under "Free for personal and commercial use". /
        Remix of the original. - Created with dicebear.com</desc>
    <metadata xmlns:dc="http://purl.org/dc/elements/1.1/" xmlns:cc="http://creativecommons.org/ns#"
        xmlns:rdf="http://www.w3.org/1999/02/22-rdf-syntax-ns#">
        <rdf:RDF>
            <cc:Work>
                <dc:title>Bottts</dc:title>
                <dc:creator>
                    <cc:Agent rdf:about="https://twitter.com/pablostanley">
                        <dc:title>Pablo Stanley</dc:title>
                    </cc:Agent>
                </dc:creator>
                <dc:source>https://bottts.com/</dc:source>
                <cc:license rdf:resource="https://bottts.com/" />
            </cc:Work>
        </rdf:RDF>
    </metadata>
    <mask id="viewboxMask">
        <rect width="180" height="180" rx="0" ry="0" x="0" y="0" fill="#fff" />
    </mask>
    <g mask="url(#viewboxMask)">
        <g transform="translate(0 66)">
            <mask id="sidesAntenna01-a" style="mask-type:luminance" maskUnits="userSpaceOnUse" x="6"
                y="11" width="156" height="51">
                <g fill="#fff">
                    <rect x="6" y="31" width="36" height="14" rx="4" />
                    <rect x="18" y="14" width="36" height="48" rx="4" />
                    <rect x="126" y="28" width="36" height="24" rx="4" />
                    <path d="M11 11h2v20h-2z" />
                </g>
            </mask>
            <g mask="url(#sidesAntenna01-a)">
                <path d="M0 0h180v76H0V0Z" fill="#3949ab" />
                <path fill="#fff" fill-opacity=".3" d="M0 0h180v76H0z" />
                <path fill="#000" fill-opacity=".1" d="M0 38h180v38H0z" />
            </g>
            <path fill="#fff" fill-opacity=".4" d="M11 11h2v20h-2z" />
            <circle cx="12" cy="8" r="4" fill="#FFEA8F" />
            <circle cx="13" cy="7" r="2" fill="#fff" />
        </g>
        <g transform="translate(41)">
            <mask id="topAntennaCrooked-a" style="mask-type:luminance" maskUnits="userSpaceOnUse"
                x="38" y="12" width="24" height="40">
                <g fill="#fff">
                    <path
                        d="M55.54 34.39 51 45h-3.74l4.92-10.44-6.05-10.43 3.22-11.84 2.9.8-2.9 10.62 6.2 10.68Z" />
                    <path d="M38 39h24v13H38z" />
                </g>
            </mask>
            <g mask="url(#topAntennaCrooked-a)">
                <path d="M0 0h100v52H0V0Z" fill="#3949ab" />
                <path d="M0 6h100v52H0V6Z" fill="#fff" fill-opacity=".3" />
                <path fill="#fff" fill-opacity=".2" d="M38 39h24v13H38z" />
            </g>
            <circle cx="50" cy="8" r="8" fill="#FFE65C" />
            <circle cx="53" cy="5" r="3" fill="#fff" />
        </g>
        <g transform="translate(25 44)">
            <mask id="faceRound02-a" style="mask-type:luminance" maskUnits="userSpaceOnUse" x="0"
                y="0" width="130" height="120">
                <path fill-rule="evenodd" clip-rule="evenodd"
                    d="M0 31v-1c.18-.48.4-1.5 1-3 .83-3.06 2.78-6.56 6-10C16.7 6.6 35.17 0 65 0s48.3 6.6 58 17c3.22 3.44 5.17 6.94 6 10 .6 1.5.82 2.52 1 3v40c0-.1-.03.5 0 1a53.93 53.93 0 0 1-1 6c-1.19 6-3.4 11.91-7 17-9.72 16.34-27.74 26-57 26s-47.28-9.66-57-26C4.4 88.91 2.2 83 1 77a53.95 53.95 0 0 1-1-6c.03-.45 0-1.32 0-1V31Z"
                    fill="#fff" />
            </mask>
            <g mask="url(#faceRound02-a)">
                <path d="M-4-2h138v124H-4V-2Z" fill="#3949ab" />
                <g transform="translate(-1 -1)"></g>
            </g>
        </g>
        <g transform="translate(52 124)">
            <path fill-rule="evenodd" clip-rule="evenodd"
                d="M18 10.22C18 21.78 24.47 28 38 28c13.52 0 20-6.34 20-17.78C58 9.5 57.17 8 55 8H21c-2.05 0-3 1.38-3 2.22Z"
                fill="#000" fill-opacity=".8" />
            <mask id="mouthSmile02-a" style="mask-type:luminance" maskUnits="userSpaceOnUse" x="18"
                y="8" width="40" height="20">
                <path fill-rule="evenodd" clip-rule="evenodd"
                    d="M18 10.22C18 21.78 24.47 28 38 28c13.52 0 20-6.34 20-17.78C58 9.5 57.17 8 55 8H21c-2.05 0-3 1.38-3 2.22Z"
                    fill="#fff" />
            </mask>
            <g mask="url(#mouthSmile02-a)">
                <rect x="30" y="2" width="16" height="14" rx="2" fill="#fff" />
            </g>
        </g>
        <g transform="translate(38 76)">
            <rect x="8" y="10" width="88" height="36" rx="4" fill="#000" fill-opacity=".8" />
            <rect x="28" y="21" width="10" height="17" rx="2" fill="#5EF2B8" />
            <rect x="66" y="21" width="10" height="17" rx="2" fill="#5EF2B8" />
            <path fill-rule="evenodd" clip-rule="evenodd" d="M83 10h5L76 46h-5l12-36Z" fill="#fff"
                fill-opacity=".4" />
        </g>
    </g>
</svg>